<?xml version="1.0" encoding="UTF-8" standalone="no"?>
<!DOCTYPE svg PUBLIC "-//W3C//DTD SVG 1.1//EN"
 "http://www.w3.org/Graphics/SVG/1.1/DTD/svg11.dtd">
<!-- Generated by graphviz version 2.43.0 (0)
 -->
<!-- Title: controllers_diagram Pages: 1 -->
<svg width="1187pt" height="1122pt"
 viewBox="0.00 0.00 1187.00 1122.00" xmlns="http://www.w3.org/2000/svg" xmlns:xlink="http://www.w3.org/1999/xlink">
<g id="graph0" class="graph" transform="scale(1 1) rotate(0) translate(4 1118)">
<title>controllers_diagram</title>
<polygon fill="transparent" stroke="transparent" points="-4,4 -4,-1118 1183,-1118 1183,4 -4,4"/>
<!-- _diagram_info -->
<g id="node1" class="node">
<title>_diagram_info</title>
<text text-anchor="start" x="468" y="-1009.6" font-family="Times,serif" font-size="13.00">Controllers diagram</text>
<text text-anchor="start" x="468" y="-995.6" font-family="Times,serif" font-size="13.00">Date: Dec 14 2023 &#45; 16:37</text>
<text text-anchor="start" x="468" y="-981.6" font-family="Times,serif" font-size="13.00">Generated by RailRoady 1.6.0</text>
<text text-anchor="start" x="468" y="-967.6" font-family="Times,serif" font-size="13.00">http://railroady.prestonlee.com</text>
</g>
<!-- ApplicationController -->
<g id="node2" class="node">
<title>ApplicationController</title>
<path fill="none" stroke="black" d="M692,-700.5C692,-700.5 850,-700.5 850,-700.5 856,-700.5 862,-706.5 862,-712.5 862,-712.5 862,-916.5 862,-916.5 862,-922.5 856,-928.5 850,-928.5 850,-928.5 692,-928.5 692,-928.5 686,-928.5 680,-922.5 680,-916.5 680,-916.5 680,-712.5 680,-712.5 680,-706.5 686,-700.5 692,-700.5"/>
<text text-anchor="middle" x="771" y="-913.3" font-family="Times,serif" font-size="14.00">ApplicationController</text>
<polyline fill="none" stroke="black" points="680,-905.5 862,-905.5 "/>
<text text-anchor="start" x="688" y="-890.3" font-family="Times,serif" font-size="14.00">authenticate_admin</text>
<text text-anchor="start" x="688" y="-875.3" font-family="Times,serif" font-size="14.00">authenticate_mod</text>
<text text-anchor="start" x="688" y="-860.3" font-family="Times,serif" font-size="14.00">authenticate_organizer</text>
<text text-anchor="start" x="688" y="-845.3" font-family="Times,serif" font-size="14.00">authenticate_staff</text>
<text text-anchor="start" x="688" y="-830.3" font-family="Times,serif" font-size="14.00">build_navigation</text>
<text text-anchor="start" x="688" y="-815.3" font-family="Times,serif" font-size="14.00">index</text>
<text text-anchor="start" x="688" y="-800.3" font-family="Times,serif" font-size="14.00">nav_link</text>
<text text-anchor="start" x="688" y="-785.3" font-family="Times,serif" font-size="14.00">nav_path</text>
<text text-anchor="start" x="688" y="-770.3" font-family="Times,serif" font-size="14.00">render_navigation</text>
<polyline fill="none" stroke="black" points="680,-762.5 862,-762.5 "/>
<polyline fill="none" stroke="black" points="680,-738.5 862,-738.5 "/>
<text text-anchor="start" x="688" y="-723.3" font-family="Times,serif" font-size="14.00">_layout</text>
<text text-anchor="start" x="688" y="-708.3" font-family="Times,serif" font-size="14.00">_layout_from_proc</text>
</g>
<!-- AssetsController -->
<g id="node3" class="node">
<title>AssetsController</title>
<path fill="none" stroke="black" d="M12,-620.5C12,-620.5 134,-620.5 134,-620.5 140,-620.5 146,-626.5 146,-632.5 146,-632.5 146,-716.5 146,-716.5 146,-722.5 140,-728.5 134,-728.5 134,-728.5 12,-728.5 12,-728.5 6,-728.5 0,-722.5 0,-716.5 0,-716.5 0,-632.5 0,-632.5 0,-626.5 6,-620.5 12,-620.5"/>
<text text-anchor="middle" x="73" y="-713.3" font-family="Times,serif" font-size="14.00">AssetsController</text>
<polyline fill="none" stroke="black" points="0,-705.5 146,-705.5 "/>
<text text-anchor="start" x="8" y="-690.3" font-family="Times,serif" font-size="14.00">index</text>
<polyline fill="none" stroke="black" points="0,-682.5 146,-682.5 "/>
<polyline fill="none" stroke="black" points="0,-658.5 146,-658.5 "/>
<text text-anchor="start" x="8" y="-643.3" font-family="Times,serif" font-size="14.00">_layout</text>
<text text-anchor="start" x="8" y="-628.3" font-family="Times,serif" font-size="14.00">_layout_from_proc</text>
</g>
<!-- CarsController -->
<g id="node4" class="node">
<title>CarsController</title>
<path fill="none" stroke="black" d="M412,-320.5C412,-320.5 534,-320.5 534,-320.5 540,-320.5 546,-326.5 546,-332.5 546,-332.5 546,-656.5 546,-656.5 546,-662.5 540,-668.5 534,-668.5 534,-668.5 412,-668.5 412,-668.5 406,-668.5 400,-662.5 400,-656.5 400,-656.5 400,-332.5 400,-332.5 400,-326.5 406,-320.5 412,-320.5"/>
<text text-anchor="middle" x="473" y="-653.3" font-family="Times,serif" font-size="14.00">CarsController</text>
<polyline fill="none" stroke="black" points="400,-645.5 546,-645.5 "/>
<text text-anchor="start" x="408" y="-630.3" font-family="Times,serif" font-size="14.00">advanced</text>
<text text-anchor="start" x="408" y="-615.3" font-family="Times,serif" font-size="14.00">amateur</text>
<text text-anchor="start" x="408" y="-600.3" font-family="Times,serif" font-size="14.00">clockwork</text>
<text text-anchor="start" x="408" y="-585.3" font-family="Times,serif" font-size="14.00">create</text>
<text text-anchor="start" x="408" y="-570.3" font-family="Times,serif" font-size="14.00">destroy</text>
<text text-anchor="start" x="408" y="-555.3" font-family="Times,serif" font-size="14.00">edit</text>
<text text-anchor="start" x="408" y="-540.3" font-family="Times,serif" font-size="14.00">import</text>
<text text-anchor="start" x="408" y="-525.3" font-family="Times,serif" font-size="14.00">index</text>
<text text-anchor="start" x="408" y="-510.3" font-family="Times,serif" font-size="14.00">new</text>
<text text-anchor="start" x="408" y="-495.3" font-family="Times,serif" font-size="14.00">pro</text>
<text text-anchor="start" x="408" y="-480.3" font-family="Times,serif" font-size="14.00">rookie</text>
<text text-anchor="start" x="408" y="-465.3" font-family="Times,serif" font-size="14.00">semipro</text>
<text text-anchor="start" x="408" y="-450.3" font-family="Times,serif" font-size="14.00">show</text>
<text text-anchor="start" x="408" y="-435.3" font-family="Times,serif" font-size="14.00">superpro</text>
<text text-anchor="start" x="408" y="-420.3" font-family="Times,serif" font-size="14.00">update</text>
<polyline fill="none" stroke="black" points="400,-412.5 546,-412.5 "/>
<polyline fill="none" stroke="black" points="400,-388.5 546,-388.5 "/>
<text text-anchor="start" x="408" y="-373.3" font-family="Times,serif" font-size="14.00">_layout</text>
<text text-anchor="start" x="408" y="-358.3" font-family="Times,serif" font-size="14.00">_layout_from_proc</text>
<text text-anchor="start" x="408" y="-343.3" font-family="Times,serif" font-size="14.00">car_params</text>
<text text-anchor="start" x="408" y="-328.3" font-family="Times,serif" font-size="14.00">set_car</text>
</g>
<!-- DownloadsController -->
<g id="node5" class="node">
<title>DownloadsController</title>
<path fill="none" stroke="black" d="M72,-760.5C72,-760.5 215,-760.5 215,-760.5 221,-760.5 227,-766.5 227,-772.5 227,-772.5 227,-856.5 227,-856.5 227,-862.5 221,-868.5 215,-868.5 215,-868.5 72,-868.5 72,-868.5 66,-868.5 60,-862.5 60,-856.5 60,-856.5 60,-772.5 60,-772.5 60,-766.5 66,-760.5 72,-760.5"/>
<text text-anchor="middle" x="143.5" y="-853.3" font-family="Times,serif" font-size="14.00">DownloadsController</text>
<polyline fill="none" stroke="black" points="60,-845.5 227,-845.5 "/>
<text text-anchor="start" x="68" y="-830.3" font-family="Times,serif" font-size="14.00">index</text>
<polyline fill="none" stroke="black" points="60,-822.5 227,-822.5 "/>
<polyline fill="none" stroke="black" points="60,-798.5 227,-798.5 "/>
<text text-anchor="start" x="68" y="-783.3" font-family="Times,serif" font-size="14.00">_layout</text>
<text text-anchor="start" x="68" y="-768.3" font-family="Times,serif" font-size="14.00">_layout_from_proc</text>
</g>
<!-- ErrorsController -->
<g id="node6" class="node">
<title>ErrorsController</title>
<path fill="none" stroke="black" d="M952,-180.5C952,-180.5 1074,-180.5 1074,-180.5 1080,-180.5 1086,-186.5 1086,-192.5 1086,-192.5 1086,-306.5 1086,-306.5 1086,-312.5 1080,-318.5 1074,-318.5 1074,-318.5 952,-318.5 952,-318.5 946,-318.5 940,-312.5 940,-306.5 940,-306.5 940,-192.5 940,-192.5 940,-186.5 946,-180.5 952,-180.5"/>
<text text-anchor="middle" x="1013" y="-303.3" font-family="Times,serif" font-size="14.00">ErrorsController</text>
<polyline fill="none" stroke="black" points="940,-295.5 1086,-295.5 "/>
<text text-anchor="start" x="948" y="-280.3" font-family="Times,serif" font-size="14.00">illegal</text>
<text text-anchor="start" x="948" y="-265.3" font-family="Times,serif" font-size="14.00">internal_error</text>
<text text-anchor="start" x="948" y="-250.3" font-family="Times,serif" font-size="14.00">not_found</text>
<polyline fill="none" stroke="black" points="940,-242.5 1086,-242.5 "/>
<polyline fill="none" stroke="black" points="940,-218.5 1086,-218.5 "/>
<text text-anchor="start" x="948" y="-203.3" font-family="Times,serif" font-size="14.00">_layout</text>
<text text-anchor="start" x="948" y="-188.3" font-family="Times,serif" font-size="14.00">_layout_from_proc</text>
</g>
<!-- PlayController -->
<g id="node7" class="node">
<title>PlayController</title>
<path fill="none" stroke="black" d="M12,-480.5C12,-480.5 134,-480.5 134,-480.5 140,-480.5 146,-486.5 146,-492.5 146,-492.5 146,-576.5 146,-576.5 146,-582.5 140,-588.5 134,-588.5 134,-588.5 12,-588.5 12,-588.5 6,-588.5 0,-582.5 0,-576.5 0,-576.5 0,-492.5 0,-492.5 0,-486.5 6,-480.5 12,-480.5"/>
<text text-anchor="middle" x="73" y="-573.3" font-family="Times,serif" font-size="14.00">PlayController</text>
<polyline fill="none" stroke="black" points="0,-565.5 146,-565.5 "/>
<text text-anchor="start" x="8" y="-550.3" font-family="Times,serif" font-size="14.00">index</text>
<polyline fill="none" stroke="black" points="0,-542.5 146,-542.5 "/>
<polyline fill="none" stroke="black" points="0,-518.5 146,-518.5 "/>
<text text-anchor="start" x="8" y="-503.3" font-family="Times,serif" font-size="14.00">_layout</text>
<text text-anchor="start" x="8" y="-488.3" font-family="Times,serif" font-size="14.00">_layout_from_proc</text>
</g>
<!-- PointsController -->
<g id="node8" class="node">
<title>PointsController</title>
<path fill="none" stroke="black" d="M12,-340.5C12,-340.5 134,-340.5 134,-340.5 140,-340.5 146,-346.5 146,-352.5 146,-352.5 146,-436.5 146,-436.5 146,-442.5 140,-448.5 134,-448.5 134,-448.5 12,-448.5 12,-448.5 6,-448.5 0,-442.5 0,-436.5 0,-436.5 0,-352.5 0,-352.5 0,-346.5 6,-340.5 12,-340.5"/>
<text text-anchor="middle" x="73" y="-433.3" font-family="Times,serif" font-size="14.00">PointsController</text>
<polyline fill="none" stroke="black" points="0,-425.5 146,-425.5 "/>
<text text-anchor="start" x="8" y="-410.3" font-family="Times,serif" font-size="14.00">index</text>
<polyline fill="none" stroke="black" points="0,-402.5 146,-402.5 "/>
<polyline fill="none" stroke="black" points="0,-378.5 146,-378.5 "/>
<text text-anchor="start" x="8" y="-363.3" font-family="Times,serif" font-size="14.00">_layout</text>
<text text-anchor="start" x="8" y="-348.3" font-family="Times,serif" font-size="14.00">_layout_from_proc</text>
</g>
<!-- RankingsController -->
<g id="node9" class="node">
<title>RankingsController</title>
<path fill="none" stroke="black" d="M192,-200.5C192,-200.5 323,-200.5 323,-200.5 329,-200.5 335,-206.5 335,-212.5 335,-212.5 335,-416.5 335,-416.5 335,-422.5 329,-428.5 323,-428.5 323,-428.5 192,-428.5 192,-428.5 186,-428.5 180,-422.5 180,-416.5 180,-416.5 180,-212.5 180,-212.5 180,-206.5 186,-200.5 192,-200.5"/>
<text text-anchor="middle" x="257.5" y="-413.3" font-family="Times,serif" font-size="14.00">RankingsController</text>
<polyline fill="none" stroke="black" points="180,-405.5 335,-405.5 "/>
<text text-anchor="start" x="188" y="-390.3" font-family="Times,serif" font-size="14.00">create</text>
<text text-anchor="start" x="188" y="-375.3" font-family="Times,serif" font-size="14.00">destroy</text>
<text text-anchor="start" x="188" y="-360.3" font-family="Times,serif" font-size="14.00">edit</text>
<text text-anchor="start" x="188" y="-345.3" font-family="Times,serif" font-size="14.00">index</text>
<text text-anchor="start" x="188" y="-330.3" font-family="Times,serif" font-size="14.00">new</text>
<text text-anchor="start" x="188" y="-315.3" font-family="Times,serif" font-size="14.00">show</text>
<text text-anchor="start" x="188" y="-300.3" font-family="Times,serif" font-size="14.00">update</text>
<polyline fill="none" stroke="black" points="180,-292.5 335,-292.5 "/>
<polyline fill="none" stroke="black" points="180,-268.5 335,-268.5 "/>
<text text-anchor="start" x="188" y="-253.3" font-family="Times,serif" font-size="14.00">_layout</text>
<text text-anchor="start" x="188" y="-238.3" font-family="Times,serif" font-size="14.00">_layout_from_proc</text>
<text text-anchor="start" x="188" y="-223.3" font-family="Times,serif" font-size="14.00">ranking_params</text>
<text text-anchor="start" x="188" y="-208.3" font-family="Times,serif" font-size="14.00">set_ranking</text>
</g>
<!-- RepositoriesController -->
<g id="node10" class="node">
<title>RepositoriesController</title>
<path fill="none" stroke="black" d="M472,-700.5C472,-700.5 627,-700.5 627,-700.5 633,-700.5 639,-706.5 639,-712.5 639,-712.5 639,-916.5 639,-916.5 639,-922.5 633,-928.5 627,-928.5 627,-928.5 472,-928.5 472,-928.5 466,-928.5 460,-922.5 460,-916.5 460,-916.5 460,-712.5 460,-712.5 460,-706.5 466,-700.5 472,-700.5"/>
<text text-anchor="middle" x="549.5" y="-913.3" font-family="Times,serif" font-size="14.00">RepositoriesController</text>
<polyline fill="none" stroke="black" points="460,-905.5 639,-905.5 "/>
<text text-anchor="start" x="468" y="-890.3" font-family="Times,serif" font-size="14.00">create</text>
<text text-anchor="start" x="468" y="-875.3" font-family="Times,serif" font-size="14.00">destroy</text>
<text text-anchor="start" x="468" y="-860.3" font-family="Times,serif" font-size="14.00">edit</text>
<text text-anchor="start" x="468" y="-845.3" font-family="Times,serif" font-size="14.00">index</text>
<text text-anchor="start" x="468" y="-830.3" font-family="Times,serif" font-size="14.00">new</text>
<text text-anchor="start" x="468" y="-815.3" font-family="Times,serif" font-size="14.00">show</text>
<text text-anchor="start" x="468" y="-800.3" font-family="Times,serif" font-size="14.00">update</text>
<polyline fill="none" stroke="black" points="460,-792.5 639,-792.5 "/>
<polyline fill="none" stroke="black" points="460,-768.5 639,-768.5 "/>
<text text-anchor="start" x="468" y="-753.3" font-family="Times,serif" font-size="14.00">_layout</text>
<text text-anchor="start" x="468" y="-738.3" font-family="Times,serif" font-size="14.00">_layout_from_proc</text>
<text text-anchor="start" x="468" y="-723.3" font-family="Times,serif" font-size="14.00">repository_params</text>
<text text-anchor="start" x="468" y="-708.3" font-family="Times,serif" font-size="14.00">set_repository</text>
</g>
<!-- RulesController -->
<g id="node11" class="node">
<title>RulesController</title>
<path fill="none" stroke="black" d="M732,-960.5C732,-960.5 854,-960.5 854,-960.5 860,-960.5 866,-966.5 866,-972.5 866,-972.5 866,-1086.5 866,-1086.5 866,-1092.5 860,-1098.5 854,-1098.5 854,-1098.5 732,-1098.5 732,-1098.5 726,-1098.5 720,-1092.5 720,-1086.5 720,-1086.5 720,-972.5 720,-972.5 720,-966.5 726,-960.5 732,-960.5"/>
<text text-anchor="middle" x="793" y="-1083.3" font-family="Times,serif" font-size="14.00">RulesController</text>
<polyline fill="none" stroke="black" points="720,-1075.5 866,-1075.5 "/>
<text text-anchor="start" x="728" y="-1060.3" font-family="Times,serif" font-size="14.00">index</text>
<text text-anchor="start" x="728" y="-1045.3" font-family="Times,serif" font-size="14.00">privacy</text>
<text text-anchor="start" x="728" y="-1030.3" font-family="Times,serif" font-size="14.00">terms</text>
<polyline fill="none" stroke="black" points="720,-1022.5 866,-1022.5 "/>
<polyline fill="none" stroke="black" points="720,-998.5 866,-998.5 "/>
<text text-anchor="start" x="728" y="-983.3" font-family="Times,serif" font-size="14.00">_layout</text>
<text text-anchor="start" x="728" y="-968.3" font-family="Times,serif" font-size="14.00">_layout_from_proc</text>
</g>
<!-- SeasonsController -->
<g id="node12" class="node">
<title>SeasonsController</title>
<path fill="none" stroke="black" d="M592,-140.5C592,-140.5 716,-140.5 716,-140.5 722,-140.5 728,-146.5 728,-152.5 728,-152.5 728,-356.5 728,-356.5 728,-362.5 722,-368.5 716,-368.5 716,-368.5 592,-368.5 592,-368.5 586,-368.5 580,-362.5 580,-356.5 580,-356.5 580,-152.5 580,-152.5 580,-146.5 586,-140.5 592,-140.5"/>
<text text-anchor="middle" x="654" y="-353.3" font-family="Times,serif" font-size="14.00">SeasonsController</text>
<polyline fill="none" stroke="black" points="580,-345.5 728,-345.5 "/>
<text text-anchor="start" x="588" y="-330.3" font-family="Times,serif" font-size="14.00">create</text>
<text text-anchor="start" x="588" y="-315.3" font-family="Times,serif" font-size="14.00">destroy</text>
<text text-anchor="start" x="588" y="-300.3" font-family="Times,serif" font-size="14.00">edit</text>
<text text-anchor="start" x="588" y="-285.3" font-family="Times,serif" font-size="14.00">index</text>
<text text-anchor="start" x="588" y="-270.3" font-family="Times,serif" font-size="14.00">new</text>
<text text-anchor="start" x="588" y="-255.3" font-family="Times,serif" font-size="14.00">show</text>
<text text-anchor="start" x="588" y="-240.3" font-family="Times,serif" font-size="14.00">update</text>
<polyline fill="none" stroke="black" points="580,-232.5 728,-232.5 "/>
<polyline fill="none" stroke="black" points="580,-208.5 728,-208.5 "/>
<text text-anchor="start" x="588" y="-193.3" font-family="Times,serif" font-size="14.00">_layout</text>
<text text-anchor="start" x="588" y="-178.3" font-family="Times,serif" font-size="14.00">_layout_from_proc</text>
<text text-anchor="start" x="588" y="-163.3" font-family="Times,serif" font-size="14.00">season_params</text>
<text text-anchor="start" x="588" y="-148.3" font-family="Times,serif" font-size="14.00">set_season</text>
</g>
<!-- SessionsController -->
<g id="node13" class="node">
<title>SessionsController</title>
<path fill="none" stroke="black" d="M272,-720.5C272,-720.5 400,-720.5 400,-720.5 406,-720.5 412,-726.5 412,-732.5 412,-732.5 412,-966.5 412,-966.5 412,-972.5 406,-978.5 400,-978.5 400,-978.5 272,-978.5 272,-978.5 266,-978.5 260,-972.5 260,-966.5 260,-966.5 260,-732.5 260,-732.5 260,-726.5 266,-720.5 272,-720.5"/>
<text text-anchor="middle" x="336" y="-963.3" font-family="Times,serif" font-size="14.00">SessionsController</text>
<polyline fill="none" stroke="black" points="260,-955.5 412,-955.5 "/>
<text text-anchor="start" x="268" y="-940.3" font-family="Times,serif" font-size="14.00">create</text>
<text text-anchor="start" x="268" y="-925.3" font-family="Times,serif" font-size="14.00">destroy</text>
<text text-anchor="start" x="268" y="-910.3" font-family="Times,serif" font-size="14.00">edit</text>
<text text-anchor="start" x="268" y="-895.3" font-family="Times,serif" font-size="14.00">import</text>
<text text-anchor="start" x="268" y="-880.3" font-family="Times,serif" font-size="14.00">index</text>
<text text-anchor="start" x="268" y="-865.3" font-family="Times,serif" font-size="14.00">new</text>
<text text-anchor="start" x="268" y="-850.3" font-family="Times,serif" font-size="14.00">rankings</text>
<text text-anchor="start" x="268" y="-835.3" font-family="Times,serif" font-size="14.00">show</text>
<text text-anchor="start" x="268" y="-820.3" font-family="Times,serif" font-size="14.00">update</text>
<polyline fill="none" stroke="black" points="260,-812.5 412,-812.5 "/>
<polyline fill="none" stroke="black" points="260,-788.5 412,-788.5 "/>
<text text-anchor="start" x="268" y="-773.3" font-family="Times,serif" font-size="14.00">_layout</text>
<text text-anchor="start" x="268" y="-758.3" font-family="Times,serif" font-size="14.00">_layout_from_proc</text>
<text text-anchor="start" x="268" y="-743.3" font-family="Times,serif" font-size="14.00">session_params</text>
<text text-anchor="start" x="268" y="-728.3" font-family="Times,serif" font-size="14.00">set_session</text>
</g>
<!-- StaffController -->
<g id="node14" class="node">
<title>StaffController</title>
<path fill="none" stroke="black" d="M12,-200.5C12,-200.5 134,-200.5 134,-200.5 140,-200.5 146,-206.5 146,-212.5 146,-212.5 146,-296.5 146,-296.5 146,-302.5 140,-308.5 134,-308.5 134,-308.5 12,-308.5 12,-308.5 6,-308.5 0,-302.5 0,-296.5 0,-296.5 0,-212.5 0,-212.5 0,-206.5 6,-200.5 12,-200.5"/>
<text text-anchor="middle" x="73" y="-293.3" font-family="Times,serif" font-size="14.00">StaffController</text>
<polyline fill="none" stroke="black" points="0,-285.5 146,-285.5 "/>
<text text-anchor="start" x="8" y="-270.3" font-family="Times,serif" font-size="14.00">index</text>
<polyline fill="none" stroke="black" points="0,-262.5 146,-262.5 "/>
<polyline fill="none" stroke="black" points="0,-238.5 146,-238.5 "/>
<text text-anchor="start" x="8" y="-223.3" font-family="Times,serif" font-size="14.00">_layout</text>
<text text-anchor="start" x="8" y="-208.3" font-family="Times,serif" font-size="14.00">_layout_from_proc</text>
</g>
<!-- StatsController -->
<g id="node15" class="node">
<title>StatsController</title>
<path fill="none" stroke="black" d="M572,-0.5C572,-0.5 694,-0.5 694,-0.5 700,-0.5 706,-6.5 706,-12.5 706,-12.5 706,-96.5 706,-96.5 706,-102.5 700,-108.5 694,-108.5 694,-108.5 572,-108.5 572,-108.5 566,-108.5 560,-102.5 560,-96.5 560,-96.5 560,-12.5 560,-12.5 560,-6.5 566,-0.5 572,-0.5"/>
<text text-anchor="middle" x="633" y="-93.3" font-family="Times,serif" font-size="14.00">StatsController</text>
<polyline fill="none" stroke="black" points="560,-85.5 706,-85.5 "/>
<text text-anchor="start" x="568" y="-70.3" font-family="Times,serif" font-size="14.00">index</text>
<polyline fill="none" stroke="black" points="560,-62.5 706,-62.5 "/>
<polyline fill="none" stroke="black" points="560,-38.5 706,-38.5 "/>
<text text-anchor="start" x="568" y="-23.3" font-family="Times,serif" font-size="14.00">_layout</text>
<text text-anchor="start" x="568" y="-8.3" font-family="Times,serif" font-size="14.00">_layout_from_proc</text>
</g>
<!-- TeamsController -->
<g id="node16" class="node">
<title>TeamsController</title>
<path fill="none" stroke="black" d="M92,-900.5C92,-900.5 214,-900.5 214,-900.5 220,-900.5 226,-906.5 226,-912.5 226,-912.5 226,-1101.5 226,-1101.5 226,-1107.5 220,-1113.5 214,-1113.5 214,-1113.5 92,-1113.5 92,-1113.5 86,-1113.5 80,-1107.5 80,-1101.5 80,-1101.5 80,-912.5 80,-912.5 80,-906.5 86,-900.5 92,-900.5"/>
<text text-anchor="middle" x="153" y="-1098.3" font-family="Times,serif" font-size="14.00">TeamsController</text>
<polyline fill="none" stroke="black" points="80,-1090.5 226,-1090.5 "/>
<text text-anchor="start" x="88" y="-1075.3" font-family="Times,serif" font-size="14.00">create</text>
<text text-anchor="start" x="88" y="-1060.3" font-family="Times,serif" font-size="14.00">destroy</text>
<text text-anchor="start" x="88" y="-1045.3" font-family="Times,serif" font-size="14.00">edit</text>
<text text-anchor="start" x="88" y="-1030.3" font-family="Times,serif" font-size="14.00">index</text>
<text text-anchor="start" x="88" y="-1015.3" font-family="Times,serif" font-size="14.00">new</text>
<text text-anchor="start" x="88" y="-1000.3" font-family="Times,serif" font-size="14.00">update</text>
<polyline fill="none" stroke="black" points="80,-992.5 226,-992.5 "/>
<polyline fill="none" stroke="black" points="80,-968.5 226,-968.5 "/>
<text text-anchor="start" x="88" y="-953.3" font-family="Times,serif" font-size="14.00">_layout</text>
<text text-anchor="start" x="88" y="-938.3" font-family="Times,serif" font-size="14.00">_layout_from_proc</text>
<text text-anchor="start" x="88" y="-923.3" font-family="Times,serif" font-size="14.00">set_team</text>
<text text-anchor="start" x="88" y="-908.3" font-family="Times,serif" font-size="14.00">team_params</text>
</g>
<!-- TournamentsController -->
<g id="node17" class="node">
<title>TournamentsController</title>
<path fill="none" stroke="black" d="M192,-460.5C192,-460.5 351,-460.5 351,-460.5 357,-460.5 363,-466.5 363,-472.5 363,-472.5 363,-676.5 363,-676.5 363,-682.5 357,-688.5 351,-688.5 351,-688.5 192,-688.5 192,-688.5 186,-688.5 180,-682.5 180,-676.5 180,-676.5 180,-472.5 180,-472.5 180,-466.5 186,-460.5 192,-460.5"/>
<text text-anchor="middle" x="271.5" y="-673.3" font-family="Times,serif" font-size="14.00">TournamentsController</text>
<polyline fill="none" stroke="black" points="180,-665.5 363,-665.5 "/>
<text text-anchor="start" x="188" y="-650.3" font-family="Times,serif" font-size="14.00">create</text>
<text text-anchor="start" x="188" y="-635.3" font-family="Times,serif" font-size="14.00">destroy</text>
<text text-anchor="start" x="188" y="-620.3" font-family="Times,serif" font-size="14.00">edit</text>
<text text-anchor="start" x="188" y="-605.3" font-family="Times,serif" font-size="14.00">index</text>
<text text-anchor="start" x="188" y="-590.3" font-family="Times,serif" font-size="14.00">new</text>
<text text-anchor="start" x="188" y="-575.3" font-family="Times,serif" font-size="14.00">show</text>
<text text-anchor="start" x="188" y="-560.3" font-family="Times,serif" font-size="14.00">update</text>
<polyline fill="none" stroke="black" points="180,-552.5 363,-552.5 "/>
<polyline fill="none" stroke="black" points="180,-528.5 363,-528.5 "/>
<text text-anchor="start" x="188" y="-513.3" font-family="Times,serif" font-size="14.00">_layout</text>
<text text-anchor="start" x="188" y="-498.3" font-family="Times,serif" font-size="14.00">_layout_from_proc</text>
<text text-anchor="start" x="188" y="-483.3" font-family="Times,serif" font-size="14.00">set_tournament</text>
<text text-anchor="start" x="188" y="-468.3" font-family="Times,serif" font-size="14.00">tournament_params</text>
</g>
<!-- TracksController -->
<g id="node18" class="node">
<title>TracksController</title>
<path fill="none" stroke="black" d="M772,-120.5C772,-120.5 894,-120.5 894,-120.5 900,-120.5 906,-126.5 906,-132.5 906,-132.5 906,-351.5 906,-351.5 906,-357.5 900,-363.5 894,-363.5 894,-363.5 772,-363.5 772,-363.5 766,-363.5 760,-357.5 760,-351.5 760,-351.5 760,-132.5 760,-132.5 760,-126.5 766,-120.5 772,-120.5"/>
<text text-anchor="middle" x="833" y="-348.3" font-family="Times,serif" font-size="14.00">TracksController</text>
<polyline fill="none" stroke="black" points="760,-340.5 906,-340.5 "/>
<text text-anchor="start" x="768" y="-325.3" font-family="Times,serif" font-size="14.00">create</text>
<text text-anchor="start" x="768" y="-310.3" font-family="Times,serif" font-size="14.00">destroy</text>
<text text-anchor="start" x="768" y="-295.3" font-family="Times,serif" font-size="14.00">edit</text>
<text text-anchor="start" x="768" y="-280.3" font-family="Times,serif" font-size="14.00">import</text>
<text text-anchor="start" x="768" y="-265.3" font-family="Times,serif" font-size="14.00">index</text>
<text text-anchor="start" x="768" y="-250.3" font-family="Times,serif" font-size="14.00">new</text>
<text text-anchor="start" x="768" y="-235.3" font-family="Times,serif" font-size="14.00">show</text>
<text text-anchor="start" x="768" y="-220.3" font-family="Times,serif" font-size="14.00">update</text>
<polyline fill="none" stroke="black" points="760,-212.5 906,-212.5 "/>
<polyline fill="none" stroke="black" points="760,-188.5 906,-188.5 "/>
<text text-anchor="start" x="768" y="-173.3" font-family="Times,serif" font-size="14.00">_layout</text>
<text text-anchor="start" x="768" y="-158.3" font-family="Times,serif" font-size="14.00">_layout_from_proc</text>
<text text-anchor="start" x="768" y="-143.3" font-family="Times,serif" font-size="14.00">set_track</text>
<text text-anchor="start" x="768" y="-128.3" font-family="Times,serif" font-size="14.00">track_params</text>
</g>
<!-- Users::ConfirmationsController -->
<g id="node19" class="node">
<title>Users::ConfirmationsController</title>
<path fill="none" stroke="black" d="M592,-540.5C592,-540.5 952,-540.5 952,-540.5 958,-540.5 964,-546.5 964,-552.5 964,-552.5 964,-651.5 964,-651.5 964,-657.5 958,-663.5 952,-663.5 952,-663.5 592,-663.5 592,-663.5 586,-663.5 580,-657.5 580,-651.5 580,-651.5 580,-552.5 580,-552.5 580,-546.5 586,-540.5 592,-540.5"/>
<text text-anchor="middle" x="772" y="-648.3" font-family="Times,serif" font-size="14.00">Users::ConfirmationsController</text>
<polyline fill="none" stroke="black" points="580,-640.5 964,-640.5 "/>
<text text-anchor="start" x="588" y="-625.3" font-family="Times,serif" font-size="14.00">after_confirmation_path_for</text>
<text text-anchor="start" x="588" y="-610.3" font-family="Times,serif" font-size="14.00">after_resending_confirmation_instructions_path_for</text>
<polyline fill="none" stroke="black" points="580,-602.5 964,-602.5 "/>
<polyline fill="none" stroke="black" points="580,-578.5 964,-578.5 "/>
<text text-anchor="start" x="588" y="-563.3" font-family="Times,serif" font-size="14.00">_layout</text>
<text text-anchor="start" x="588" y="-548.3" font-family="Times,serif" font-size="14.00">_layout_from_proc</text>
</g>
<!-- Users::OmniauthCallbacksController -->
<g id="node20" class="node">
<title>Users::OmniauthCallbacksController</title>
<path fill="none" stroke="black" d="M912,-700.5C912,-700.5 1167,-700.5 1167,-700.5 1173,-700.5 1179,-706.5 1179,-712.5 1179,-712.5 1179,-797.5 1179,-797.5 1179,-803.5 1173,-809.5 1167,-809.5 1167,-809.5 912,-809.5 912,-809.5 906,-809.5 900,-803.5 900,-797.5 900,-797.5 900,-712.5 900,-712.5 900,-706.5 906,-700.5 912,-700.5"/>
<text text-anchor="middle" x="1039.5" y="-794.3" font-family="Times,serif" font-size="14.00">Users::OmniauthCallbacksController</text>
<polyline fill="none" stroke="black" points="900,-786.5 1179,-786.5 "/>
<polyline fill="none" stroke="black" points="900,-762.5 1179,-762.5 "/>
<polyline fill="none" stroke="black" points="900,-738.5 1179,-738.5 "/>
<text text-anchor="start" x="908" y="-723.3" font-family="Times,serif" font-size="14.00">_layout</text>
<text text-anchor="start" x="908" y="-708.3" font-family="Times,serif" font-size="14.00">_layout_from_proc</text>
</g>
<!-- Users::PasswordsController -->
<g id="node21" class="node">
<title>Users::PasswordsController</title>
<path fill="none" stroke="black" d="M592,-400.5C592,-400.5 959,-400.5 959,-400.5 965,-400.5 971,-406.5 971,-412.5 971,-412.5 971,-496.5 971,-496.5 971,-502.5 965,-508.5 959,-508.5 959,-508.5 592,-508.5 592,-508.5 586,-508.5 580,-502.5 580,-496.5 580,-496.5 580,-412.5 580,-412.5 580,-406.5 586,-400.5 592,-400.5"/>
<text text-anchor="middle" x="775.5" y="-493.3" font-family="Times,serif" font-size="14.00">Users::PasswordsController</text>
<polyline fill="none" stroke="black" points="580,-485.5 971,-485.5 "/>
<text text-anchor="start" x="588" y="-470.3" font-family="Times,serif" font-size="14.00">after_sending_reset_password_instructions_path_for</text>
<polyline fill="none" stroke="black" points="580,-462.5 971,-462.5 "/>
<polyline fill="none" stroke="black" points="580,-438.5 971,-438.5 "/>
<text text-anchor="start" x="588" y="-423.3" font-family="Times,serif" font-size="14.00">_layout</text>
<text text-anchor="start" x="588" y="-408.3" font-family="Times,serif" font-size="14.00">_layout_from_proc</text>
</g>
<!-- Users::RegistrationsController -->
<g id="node22" class="node">
<title>Users::RegistrationsController</title>
<path fill="none" stroke="black" d="M912,-840.5C912,-840.5 1150,-840.5 1150,-840.5 1156,-840.5 1162,-846.5 1162,-852.5 1162,-852.5 1162,-951.5 1162,-951.5 1162,-957.5 1156,-963.5 1150,-963.5 1150,-963.5 912,-963.5 912,-963.5 906,-963.5 900,-957.5 900,-951.5 900,-951.5 900,-852.5 900,-852.5 900,-846.5 906,-840.5 912,-840.5"/>
<text text-anchor="middle" x="1031" y="-948.3" font-family="Times,serif" font-size="14.00">Users::RegistrationsController</text>
<polyline fill="none" stroke="black" points="900,-940.5 1162,-940.5 "/>
<polyline fill="none" stroke="black" points="900,-916.5 1162,-916.5 "/>
<text text-anchor="start" x="908" y="-901.3" font-family="Times,serif" font-size="14.00">configure_account_update_params</text>
<text text-anchor="start" x="908" y="-886.3" font-family="Times,serif" font-size="14.00">configure_sign_up_params</text>
<polyline fill="none" stroke="black" points="900,-878.5 1162,-878.5 "/>
<text text-anchor="start" x="908" y="-863.3" font-family="Times,serif" font-size="14.00">_layout</text>
<text text-anchor="start" x="908" y="-848.3" font-family="Times,serif" font-size="14.00">_layout_from_proc</text>
</g>
<!-- Users::SessionsController -->
<g id="node23" class="node">
<title>Users::SessionsController</title>
<path fill="none" stroke="black" d="M52,-60.5C52,-60.5 231,-60.5 231,-60.5 237,-60.5 243,-66.5 243,-72.5 243,-72.5 243,-157.5 243,-157.5 243,-163.5 237,-169.5 231,-169.5 231,-169.5 52,-169.5 52,-169.5 46,-169.5 40,-163.5 40,-157.5 40,-157.5 40,-72.5 40,-72.5 40,-66.5 46,-60.5 52,-60.5"/>
<text text-anchor="middle" x="141.5" y="-154.3" font-family="Times,serif" font-size="14.00">Users::SessionsController</text>
<polyline fill="none" stroke="black" points="40,-146.5 243,-146.5 "/>
<polyline fill="none" stroke="black" points="40,-122.5 243,-122.5 "/>
<polyline fill="none" stroke="black" points="40,-98.5 243,-98.5 "/>
<text text-anchor="start" x="48" y="-83.3" font-family="Times,serif" font-size="14.00">_layout</text>
<text text-anchor="start" x="48" y="-68.3" font-family="Times,serif" font-size="14.00">_layout_from_proc</text>
</g>
<!-- Users::UnlocksController -->
<g id="node24" class="node">
<title>Users::UnlocksController</title>
<path fill="none" stroke="black" d="M952,-40.5C952,-40.5 1125,-40.5 1125,-40.5 1131,-40.5 1137,-46.5 1137,-52.5 1137,-52.5 1137,-137.5 1137,-137.5 1137,-143.5 1131,-149.5 1125,-149.5 1125,-149.5 952,-149.5 952,-149.5 946,-149.5 940,-143.5 940,-137.5 940,-137.5 940,-52.5 940,-52.5 940,-46.5 946,-40.5 952,-40.5"/>
<text text-anchor="middle" x="1038.5" y="-134.3" font-family="Times,serif" font-size="14.00">Users::UnlocksController</text>
<polyline fill="none" stroke="black" points="940,-126.5 1137,-126.5 "/>
<polyline fill="none" stroke="black" points="940,-102.5 1137,-102.5 "/>
<polyline fill="none" stroke="black" points="940,-78.5 1137,-78.5 "/>
<text text-anchor="start" x="948" y="-63.3" font-family="Times,serif" font-size="14.00">_layout</text>
<text text-anchor="start" x="948" y="-48.3" font-family="Times,serif" font-size="14.00">_layout_from_proc</text>
</g>
<!-- UsersController -->
<g id="node25" class="node">
<title>UsersController</title>
<path fill="none" stroke="black" d="M392,-100.5C392,-100.5 514,-100.5 514,-100.5 520,-100.5 526,-106.5 526,-112.5 526,-112.5 526,-271.5 526,-271.5 526,-277.5 520,-283.5 514,-283.5 514,-283.5 392,-283.5 392,-283.5 386,-283.5 380,-277.5 380,-271.5 380,-271.5 380,-112.5 380,-112.5 380,-106.5 386,-100.5 392,-100.5"/>
<text text-anchor="middle" x="453" y="-268.3" font-family="Times,serif" font-size="14.00">UsersController</text>
<polyline fill="none" stroke="black" points="380,-260.5 526,-260.5 "/>
<text text-anchor="start" x="388" y="-245.3" font-family="Times,serif" font-size="14.00">edit</text>
<text text-anchor="start" x="388" y="-230.3" font-family="Times,serif" font-size="14.00">import</text>
<text text-anchor="start" x="388" y="-215.3" font-family="Times,serif" font-size="14.00">members</text>
<text text-anchor="start" x="388" y="-200.3" font-family="Times,serif" font-size="14.00">new</text>
<text text-anchor="start" x="388" y="-185.3" font-family="Times,serif" font-size="14.00">show</text>
<text text-anchor="start" x="388" y="-170.3" font-family="Times,serif" font-size="14.00">stats</text>
<polyline fill="none" stroke="black" points="380,-162.5 526,-162.5 "/>
<polyline fill="none" stroke="black" points="380,-138.5 526,-138.5 "/>
<text text-anchor="start" x="388" y="-123.3" font-family="Times,serif" font-size="14.00">_layout</text>
<text text-anchor="start" x="388" y="-108.3" font-family="Times,serif" font-size="14.00">_layout_from_proc</text>
</g>
</g>
</svg>
