<?xml version="1.0" encoding="UTF-8" standalone="no"?>
<!-- Generated by graphviz version 2.43.0 (0)
 -->

<!-- Title: models_diagram Pages: 1 -->

<svg
   width="15cm"
   height="10cm"
   viewBox="0 0 425.30937 283.46457"
   version="1.1"
   id="svg42"
   sodipodi:docname="models_brief.svg"
   inkscape:export-filename="..\..\src\img\models_brief.png"
   inkscape:export-xdpi="350"
   inkscape:export-ydpi="350"
   inkscape:version="1.3 (0e150ed6c4, 2023-07-21)"
   xmlns:inkscape="http://www.inkscape.org/namespaces/inkscape"
   xmlns:sodipodi="http://sodipodi.sourceforge.net/DTD/sodipodi-0.dtd"
   xmlns:xlink="http://www.w3.org/1999/xlink"
   xmlns="http://www.w3.org/2000/svg"
   xmlns:svg="http://www.w3.org/2000/svg">
  <defs
     id="defs42">
    <linearGradient
       id="swatch42"
       inkscape:swatch="solid">
      <stop
         style="stop-color:#000000;stop-opacity:0;"
         offset="0"
         id="stop42" />
    </linearGradient>
    <linearGradient
       inkscape:collect="always"
       xlink:href="#swatch42"
       id="linearGradient42"
       x1="-4"
       y1="-148.5"
       x2="714.19"
       y2="-148.5"
       gradientUnits="userSpaceOnUse" />
  </defs>
  <sodipodi:namedview
     id="namedview42"
     pagecolor="#ffffff"
     bordercolor="#999999"
     borderopacity="1"
     inkscape:showpageshadow="2"
     inkscape:pageopacity="0"
     inkscape:pagecheckerboard="0"
     inkscape:deskcolor="#d1d1d1"
     inkscape:document-units="pt"
     inkscape:zoom="1.7465181"
     inkscape:cx="263.0949"
     inkscape:cy="168.04864"
     inkscape:window-width="1920"
     inkscape:window-height="1017"
     inkscape:window-x="-8"
     inkscape:window-y="-8"
     inkscape:window-maximized="1"
     inkscape:current-layer="graph0" />
  <g
     id="graph0"
     class="graph"
     transform="translate(4,301)">
    <title
       id="title1">models_diagram</title>
    <polygon
       fill="transparent"
       stroke="transparent"
       points="-4,-301 714.19,-301 714.19,4 -4,4 "
       id="polygon1"
       style="fill:url(#linearGradient42)"
       transform="matrix(0.6048838,0,0,0.6048838,-17.38165,-77.021388)" />
    <!-- _diagram_info -->
    <!-- Car -->
    <g
       id="node2"
       class="node"
       transform="matrix(0.6048838,0,0,0.6048838,-17.38165,-77.021388)">
      <title
         id="title5">Car</title>
      <ellipse
         fill="none"
         stroke="#000000"
         cx="84.5"
         cy="-178"
         rx="27.1"
         ry="18"
         id="ellipse5" />
      <text
         text-anchor="middle"
         x="84.5"
         y="-174.3"
         font-family="Times, serif"
         font-size="14px"
         id="text6">Car</text>
    </g>
    <!-- Season -->
    <g
       id="node9"
       class="node"
       transform="matrix(0.6048838,0,0,0.6048838,-17.38165,-77.021388)">
      <title
         id="title6">Season</title>
      <ellipse
         fill="none"
         stroke="#000000"
         cx="108.5"
         cy="-105"
         rx="44.389999"
         ry="18"
         id="ellipse6" />
      <text
         text-anchor="middle"
         x="108.5"
         y="-101.3"
         font-family="Times, serif"
         font-size="14px"
         id="text7">Season</text>
    </g>
    <!-- Car&#45;&gt;Season -->
    <g
       id="edge1"
       class="edge"
       transform="matrix(0.6048838,0,0,0.6048838,-17.38165,-77.021388)">
      <title
         id="title7">Car-&gt;Season</title>
      <path
         fill="none"
         stroke="#4c6d72"
         d="m 93.4,-150.69 c 1.93,5.74 3.99,11.82 5.94,17.59"
         id="path7" />
      <polygon
         fill="#4c6d72"
         stroke="#4c6d72"
         points="94.45,-161.62 93.39,-150.7 85.92,-158.73 91.79,-155.44 90.19,-160.17 91.79,-155.44 "
         id="polygon7" />
      <polygon
         fill="#4c6d72"
         stroke="#4c6d72"
         points="98.42,-121.76 99.48,-132.67 106.95,-124.64 101.09,-127.94 102.69,-123.2 101.09,-127.94 "
         id="polygon8" />
    </g>
    <!-- Profile -->
    <g
       id="node3"
       class="node"
       transform="matrix(0.6048838,0,0,0.6048838,-17.38165,-77.021388)">
      <title
         id="title8">Profile</title>
      <ellipse
         fill="none"
         stroke="#000000"
         cx="435.5"
         cy="-105"
         rx="40.889999"
         ry="18"
         id="ellipse8" />
      <text
         text-anchor="middle"
         x="435.5"
         y="-101.3"
         font-family="Times, serif"
         font-size="14px"
         id="text8">Profile</text>
    </g>
    <!-- User -->
    <g
       id="node15"
       class="node"
       transform="matrix(0.6048838,0,0,0.6048838,-17.38165,-77.021388)">
      <title
         id="title9">User</title>
      <ellipse
         fill="none"
         stroke="#000000"
         cx="345.5"
         cy="-18"
         rx="33.290001"
         ry="18"
         id="ellipse9" />
      <text
         text-anchor="middle"
         x="345.5"
         y="-14.3"
         font-family="Times, serif"
         font-size="14px"
         id="text9">User</text>
    </g>
    <!-- Profile&#45;&gt;User -->
    <g
       id="edge2"
       class="edge"
       transform="matrix(0.6048838,0,0,0.6048838,-17.38165,-77.021388)">
      <title
         id="title10">Profile-&gt;User</title>
      <path
         fill="none"
         stroke="#4a7272"
         d="m 417.88,-79.14 c -6.55,8.43 -14.35,17.61 -22.38,25.14 -6.09,5.71 -13.16,11.22 -20.04,16.11"
         id="path10" />
      <polygon
         fill="#4a7272"
         stroke="#4a7272"
         points="427.57,-84.53 417.96,-79.25 420.38,-89.94 420.96,-83.24 423.97,-87.24 420.96,-83.24 "
         id="polygon10" />
      <polygon
         fill="#4a7272"
         stroke="#4a7272"
         points="364.4,-35.77 375.2,-37.71 369.49,-28.35 371.07,-34.88 366.95,-32.06 371.07,-34.88 "
         id="polygon11" />
    </g>
    <!-- Race -->
    <g
       id="node4"
       class="node"
       transform="matrix(0.6048838,0,0,0.6048838,-17.38165,-77.021388)">
      <title
         id="title11">Race</title>
      <ellipse
         fill="none"
         stroke="#000000"
         cx="587.5"
         cy="-178"
         rx="33.290001"
         ry="18"
         id="ellipse11" />
      <text
         text-anchor="middle"
         x="587.5"
         y="-174.3"
         font-family="Times, serif"
         font-size="14px"
         id="text11">Race</text>
    </g>
    <!-- RacerEntry -->
    <g
       id="node5"
       class="node"
       transform="matrix(0.6048838,0,0,0.6048838,-17.38165,-77.021388)">
      <title
         id="title12">RacerEntry</title>
      <ellipse
         fill="none"
         stroke="#000000"
         cx="646.5"
         cy="-105"
         rx="63.889999"
         ry="18"
         id="ellipse12" />
      <text
         text-anchor="middle"
         x="646.5"
         y="-101.3"
         font-family="Times, serif"
         font-size="14px"
         id="text12">RacerEntry</text>
    </g>
    <!-- Race&#45;&gt;RacerEntry -->
    <g
       id="edge4"
       class="edge"
       transform="matrix(0.6048838,0,0,0.6048838,-17.38165,-77.021388)">
      <title
         id="title13">Race-&gt;RacerEntry</title>
      <path
         fill="none"
         stroke="#dbea9f"
         d="m 606.99,-153.54 c 6.16,7.41 12.97,15.61 19.19,23.08"
         id="path13" />
      <polygon
         fill="#dbea9f"
         stroke="#dbea9f"
         points="604.06,-164.12 606.99,-153.55 597.13,-158.37 603.79,-157.4 600.59,-161.24 603.79,-157.4 "
         id="polygon13" />
      <polygon
         fill="#dbea9f"
         stroke="#dbea9f"
         points="629.16,-119.83 626.23,-130.39 636.08,-125.58 629.42,-126.55 632.62,-122.7 629.42,-126.55 "
         id="polygon14" />
    </g>
    <!-- Session -->
    <g
       id="node10"
       class="node"
       transform="matrix(0.6048838,0,0,0.6048838,-17.38165,-77.021388)">
      <title
         id="title14">Session</title>
      <ellipse
         fill="none"
         stroke="#000000"
         cx="330.5"
         cy="-105"
         rx="46.290001"
         ry="18"
         id="ellipse14" />
      <text
         text-anchor="middle"
         x="330.5"
         y="-101.3"
         font-family="Times, serif"
         font-size="14px"
         id="text14">Session</text>
    </g>
    <!-- Race&#45;&gt;Session -->
    <g
       id="edge3"
       class="edge"
       transform="matrix(0.6048838,0,0,0.6048838,-17.38165,-77.021388)">
      <title
         id="title15">Race-&gt;Session</title>
      <path
         fill="none"
         stroke="#a7f61c"
         d="m 548.14,-166.96 c -40.8,10.52 -106.37,27.75 -162.64,43.96 -3.37,0.97 -6.84,1.99 -10.34,3.04"
         id="path15" />
      <polygon
         fill="#a7f61c"
         stroke="#a7f61c"
         points="559.08,-165.13 548.28,-166.99 556.84,-173.84 553.12,-168.24 557.96,-169.48 553.12,-168.24 "
         id="polygon15" />
      <polygon
         fill="#a7f61c"
         stroke="#a7f61c"
         points="364.05,-121.3 374.93,-119.89 366.66,-112.69 370.14,-118.44 365.35,-116.99 370.14,-118.44 "
         id="polygon16" />
    </g>
    <!-- RacerResultEntry -->
    <g
       id="node6"
       class="node"
       transform="matrix(0.6048838,0,0,0.6048838,-17.38165,-77.021388)">
      <title
         id="title16">RacerResultEntry</title>
      <ellipse
         fill="none"
         stroke="#000000"
         cx="330.5"
         cy="-265"
         rx="93.68"
         ry="18"
         id="ellipse16" />
      <text
         text-anchor="middle"
         x="330.5"
         y="-261.29999"
         font-family="Times, serif"
         font-size="14px"
         id="text16">RacerResultEntry</text>
    </g>
    <!-- Ranking -->
    <g
       id="node7"
       class="node"
       transform="matrix(0.6048838,0,0,0.6048838,-17.38165,-77.021388)">
      <title
         id="title17">Ranking</title>
      <ellipse
         fill="none"
         stroke="#000000"
         cx="330.5"
         cy="-178"
         rx="48.990002"
         ry="18"
         id="ellipse17" />
      <text
         text-anchor="middle"
         x="330.5"
         y="-174.3"
         font-family="Times, serif"
         font-size="14px"
         id="text17">Ranking</text>
    </g>
    <!-- RacerResultEntry&#45;&gt;Ranking -->
    <g
       id="edge6"
       class="edge"
       transform="matrix(0.6048838,0,0,0.6048838,-17.38165,-77.021388)">
      <title
         id="title18">RacerResultEntry-&gt;Ranking</title>
      <path
         fill="none"
         stroke="#931c72"
         d="m 330.5,-236.73 c 0,9.67 0,20.56 0,30.25"
         id="path18" />
      <polygon
         fill="#931c72"
         stroke="#931c72"
         points="335,-246.8 330.5,-236.8 326,-246.8 330.5,-241.8 330.5,-246.8 330.5,-241.8 "
         id="polygon18" />
      <polygon
         fill="#931c72"
         stroke="#931c72"
         points="326,-196.18 330.5,-206.18 335,-196.18 330.5,-201.18 330.5,-196.18 330.5,-201.18 "
         id="polygon19" />
    </g>
    <!-- RacerResultEntry&#45;&gt;Season -->
    <g
       id="edge5"
       class="edge"
       transform="matrix(0.6048838,0,0,0.6048838,-17.38165,-77.021388)">
      <title
         id="title19">RacerResultEntry-&gt;Season</title>
      <path
         fill="none"
         stroke="#3724d0"
         d="m 274.79,-246.25 c -15.26,4.59 -31.85,9.34 -47.29,13.25 -78.75,19.95 -127.7,-25.99 -179,37 -18.14,22.27 6.82,50.06 29.85,68.82"
         id="path19" />
      <polygon
         fill="#3724d0"
         stroke="#3724d0"
         points="285.91,-244.93 275.03,-246.32 283.29,-253.54 279.81,-247.78 284.6,-249.24 279.81,-247.78 "
         id="polygon20" />
      <polygon
         fill="#3724d0"
         stroke="#3724d0"
         points="83.57,-117.39 78.46,-127.09 89.11,-124.49 82.4,-124.02 86.34,-120.94 82.4,-124.02 "
         id="polygon21" />
    </g>
    <!-- RacerResultEntry&#45;&gt;Session -->
    <g
       id="edge7"
       class="edge"
       transform="matrix(0.6048838,0,0,0.6048838,-17.38165,-77.021388)">
      <title
         id="title21">RacerResultEntry-&gt;Session</title>
      <path
         fill="none"
         stroke="#bc50ba"
         d="m 358,-240.37 c 11.8,11.95 24.28,27.49 30.5,44.37 5.53,15.01 6.39,21.33 0,36 -5.64,12.97 -16.11,24.23 -26.61,33.06"
         id="path21" />
      <polygon
         fill="#bc50ba"
         stroke="#bc50ba"
         points="353.93,-250.56 358,-240.37 347.68,-244.09 354.4,-243.85 350.81,-247.32 354.4,-243.85 "
         id="polygon22" />
      <polygon
         fill="#bc50ba"
         stroke="#bc50ba"
         points="351.15,-124.2 361.79,-126.86 356.71,-117.13 357.86,-123.76 353.93,-120.67 357.86,-123.76 "
         id="polygon23" />
    </g>
    <!-- Ranking&#45;&gt;Season -->
    <g
       id="edge8"
       class="edge"
       transform="matrix(0.6048838,0,0,0.6048838,-17.38165,-77.021388)">
      <title
         id="title23">Ranking-&gt;Season</title>
      <path
         fill="none"
         stroke="#34a856"
         d="m 285.04,-162.46 c -38.91,12.44 -94.56,30.24 -132.93,42.51"
         id="path23" />
      <polygon
         fill="#34a856"
         stroke="#34a856"
         points="296.2,-161.31 285.31,-162.55 293.46,-169.88 290.07,-164.07 294.83,-165.59 290.07,-164.07 "
         id="polygon24" />
      <polygon
         fill="#34a856"
         stroke="#34a856"
         points="140.89,-121.08 151.79,-119.84 143.63,-112.51 147.02,-118.32 142.26,-116.8 147.02,-118.32 "
         id="polygon25" />
    </g>
    <!-- Ranking&#45;&gt;Session -->
    <g
       id="edge9"
       class="edge"
       transform="matrix(0.6048838,0,0,0.6048838,-17.38165,-77.021388)">
      <title
         id="title25">Ranking-&gt;Session</title>
      <path
         fill="none"
         stroke="#36f3df"
         d="m 330.5,-149.75 c 0,5.47 0,11.23 0,16.7"
         id="path25" />
      <polygon
         fill="#36f3df"
         stroke="#36f3df"
         points="335,-159.81 330.5,-149.81 326,-159.81 330.5,-154.81 330.5,-159.81 330.5,-154.81 "
         id="polygon26" />
      <polygon
         fill="#36f3df"
         stroke="#36f3df"
         points="326,-123.03 330.5,-133.03 335,-123.03 330.5,-128.03 330.5,-123.03 330.5,-128.03 "
         id="polygon27" />
    </g>
    <!-- Repository -->
    <g
       id="node8"
       class="node"
       transform="matrix(0.6048838,0,0,0.6048838,-17.38165,-77.021388)">
      <title
         id="title27">Repository</title>
      <ellipse
         fill="none"
         stroke="#000000"
         cx="503.5"
         cy="-265"
         rx="61.189999"
         ry="18"
         id="ellipse27" />
      <text
         text-anchor="middle"
         x="503.5"
         y="-261.29999"
         font-family="Times, serif"
         font-size="14px"
         id="text27">Repository</text>
    </g>
    <!-- Track -->
    <g
       id="node14"
       class="node"
       transform="matrix(0.6048838,0,0,0.6048838,-17.38165,-77.021388)">
      <title
         id="title28">Track</title>
      <ellipse
         fill="none"
         stroke="#000000"
         cx="108.5"
         cy="-18"
         rx="36.290001"
         ry="18"
         id="ellipse28" />
      <text
         text-anchor="middle"
         x="108.5"
         y="-14.3"
         font-family="Times, serif"
         font-size="14px"
         id="text28">Track</text>
    </g>
    <!-- Season&#45;&gt;Track -->
    <g
       id="edge10"
       class="edge"
       transform="matrix(0.6048838,0,0,0.6048838,-17.38165,-77.021388)">
      <title
         id="title29">Season-&gt;Track</title>
      <path
         fill="none"
         stroke="#bc60e1"
         d="m 108.5,-76.73 c 0,9.67 0,20.56 0,30.25"
         id="path29" />
      <polygon
         fill="#bc60e1"
         stroke="#bc60e1"
         points="113,-86.8 108.5,-76.8 104,-86.8 108.5,-81.8 108.5,-86.8 108.5,-81.8 "
         id="polygon29" />
      <polygon
         fill="#bc60e1"
         stroke="#bc60e1"
         points="104,-36.18 108.5,-46.18 113,-36.18 108.5,-41.18 108.5,-36.18 108.5,-41.18 "
         id="polygon30" />
    </g>
    <!-- Stats -->
    <g
       id="node11"
       class="node"
       transform="matrix(0.6048838,0,0,0.6048838,-17.38165,-77.021388)">
      <title
         id="title30">Stats</title>
      <ellipse
         fill="none"
         stroke="#000000"
         cx="529.5"
         cy="-105"
         rx="35.189999"
         ry="18"
         id="ellipse30" />
      <text
         text-anchor="middle"
         x="529.5"
         y="-101.3"
         font-family="Times, serif"
         font-size="14px"
         id="text30">Stats</text>
    </g>
    <!-- Stats&#45;&gt;User -->
    <g
       id="edge11"
       class="edge"
       transform="matrix(0.6048838,0,0,0.6048838,-17.38165,-77.021388)">
      <title
         id="title31">Stats-&gt;User</title>
      <path
         fill="none"
         stroke="#b3a3ab"
         d="m 495.06,-88.09 c -33.11,15.29 -82.84,38.27 -115.74,53.47"
         id="path31" />
      <polygon
         fill="#b3a3ab"
         stroke="#b3a3ab"
         points="506.19,-88.27 495.22,-88.17 502.41,-96.44 499.76,-90.26 504.3,-92.36 499.76,-90.26 "
         id="polygon31" />
      <polygon
         fill="#b3a3ab"
         stroke="#b3a3ab"
         points="368.21,-34.45 379.18,-34.56 371.99,-26.28 374.64,-32.46 370.1,-30.36 374.64,-32.46 "
         id="polygon32" />
    </g>
    <!-- Team -->
    <g
       id="node12"
       class="node"
       transform="matrix(0.6048838,0,0,0.6048838,-17.38165,-77.021388)">
      <title
         id="title32">Team</title>
      <ellipse
         fill="none"
         stroke="#000000"
         cx="230.5"
         cy="-105"
         rx="36"
         ry="18"
         id="ellipse32" />
      <text
         text-anchor="middle"
         x="230.5"
         y="-101.3"
         font-family="Times, serif"
         font-size="14px"
         id="text32">Team</text>
    </g>
    <!-- Team&#45;&gt;User -->
    <g
       id="edge12"
       class="edge"
       transform="matrix(0.6048838,0,0,0.6048838,-17.38165,-77.021388)">
      <title
         id="title33">Team-&gt;User</title>
      <path
         fill="none"
         stroke="#e50088"
         d="m 267.67,-89.95 c 2.65,1 5.28,1.99 7.83,2.95 21.32,8.03 31.45,2.34 48,18 6.64,6.28 11.39,14.91 14.75,23.23"
         id="path33" />
      <polygon
         fill="#e50088"
         stroke="#e50088"
         points="259.69,-97.77 267.46,-90.03 256.51,-89.35 262.78,-91.8 258.1,-93.56 262.78,-91.8 "
         id="polygon33" />
      <polygon
         fill="#e50088"
         stroke="#e50088"
         points="337.32,-34.81 338.26,-45.73 345.81,-37.78 339.91,-41.01 341.56,-36.29 339.91,-41.01 "
         id="polygon34" />
      <text
         text-anchor="middle"
         x="356.5"
         y="-57.799999"
         font-family="Times, serif"
         font-size="14px"
         id="text34">leader</text>
    </g>
    <!-- Team&#45;&gt;User -->
    <g
       id="edge13"
       class="edge"
       transform="matrix(0.6048838,0,0,0.6048838,-17.38165,-77.021388)">
      <title
         id="title34">Team-&gt;User</title>
      <path
         fill="none"
         stroke="#af8810"
         d="m 225.29,-76.89 c -0.12,8.05 1.34,16.43 6.21,22.89 16.39,21.71 45.98,30.36 70.91,33.63"
         id="path34" />
      <polygon
         fill="#af8810"
         stroke="#af8810"
         points="230.67,-86.69 225.31,-77.12 221.71,-87.48 225.75,-82.1 226.19,-87.08 225.75,-82.1 "
         id="polygon35" />
      <polygon
         fill="#af8810"
         stroke="#af8810"
         points="311.93,-14.83 302.46,-20.37 312.88,-23.78 307.43,-19.84 312.41,-19.3 307.43,-19.84 "
         id="polygon36" />
      <text
         text-anchor="middle"
         x="265"
         y="-57.799999"
         font-family="Times, serif"
         font-size="14px"
         id="text36">members</text>
    </g>
    <!-- Tournament -->
    <g
       id="node13"
       class="node"
       transform="matrix(0.6048838,0,0,0.6048838,-17.38165,-77.021388)">
      <title
         id="title36">Tournament</title>
      <ellipse
         fill="none"
         stroke="#000000"
         cx="196.5"
         cy="-178"
         rx="66.889999"
         ry="18"
         id="ellipse36" />
      <text
         text-anchor="middle"
         x="196.5"
         y="-174.3"
         font-family="Times, serif"
         font-size="14px"
         id="text37">Tournament</text>
    </g>
    <!-- Tournament&#45;&gt;Season -->
    <g
       id="edge14"
       class="edge"
       transform="matrix(0.6048838,0,0,0.6048838,-17.38165,-77.021388)">
      <title
         id="title37">Tournament-&gt;Season</title>
      <path
         fill="none"
         stroke="#bf675c"
         d="m 168.16,-154.14 c -10.46,8.45 -22.29,17.99 -32.64,26.34"
         id="path37" />
      <polygon
         fill="#bf675c"
         stroke="#bf675c"
         points="178.92,-157.03 168.31,-154.25 173.26,-164.03 172.2,-157.39 176.09,-160.53 172.2,-157.39 "
         id="polygon37" />
      <polygon
         fill="#bf675c"
         stroke="#bf675c"
         points="124.77,-124.91 135.38,-127.69 130.42,-117.9 131.49,-124.55 127.59,-121.41 131.49,-124.55 "
         id="polygon38" />
    </g>
    <!-- Tournament&#45;&gt;Team -->
    <g
       id="edge15"
       class="edge"
       transform="matrix(0.6048838,0,0,0.6048838,-17.38165,-77.021388)">
      <title
         id="title38">Tournament-&gt;Team</title>
      <path
         fill="none"
         stroke="#94d91c"
         d="m 209.13,-150.63 c 2.9,6.06 5.98,12.49 8.87,18.54"
         id="path38" />
      <polygon
         fill="#94d91c"
         stroke="#94d91c"
         points="208.79,-161.76 209.05,-150.79 200.67,-157.87 206.89,-155.3 204.73,-159.81 206.89,-155.3 "
         id="polygon39" />
      <polygon
         fill="#94d91c"
         stroke="#94d91c"
         points="218.29,-121.09 218.03,-132.05 226.4,-124.97 220.19,-127.54 222.35,-123.03 220.19,-127.54 "
         id="polygon40" />
    </g>
    <!-- User&#45;&gt;Team -->
    <g
       id="edge16"
       class="edge"
       transform="matrix(0.6048838,0,0,0.6048838,-17.38165,-77.021388)">
      <title
         id="title40">User-&gt;Team</title>
      <path
         fill="none"
         stroke="#4e8ded"
         d="m 326.55,-42.37 c -8.04,-9.01 -17.9,-18.98 -28.05,-26.63 -9.76,-7.36 -21.29,-13.95 -32.06,-19.37"
         id="path40" />
      <polygon
         fill="#4e8ded"
         stroke="#4e8ded"
         points="329.71,-31.83 326.58,-42.34 336.52,-37.71 329.85,-38.55 333.12,-34.77 329.85,-38.55 "
         id="polygon41" />
      <polygon
         fill="#4e8ded"
         stroke="#4e8ded"
         points="259.2,-96.88 266.24,-88.47 255.28,-88.78 261.74,-90.65 257.24,-92.83 261.74,-90.65 "
         id="polygon42" />
    </g>
  </g>
</svg>
