<?xml version="1.0" encoding="UTF-8" standalone="no"?>
<!DOCTYPE svg PUBLIC "-//W3C//DTD SVG 1.1//EN"
 "http://www.w3.org/Graphics/SVG/1.1/DTD/svg11.dtd">
<!-- Generated by graphviz version 2.43.0 (0)
 -->
<!-- Title: models_diagram Pages: 1 -->
<svg width="718pt" height="305pt"
 viewBox="0.00 0.00 718.19 305.00" xmlns="http://www.w3.org/2000/svg" xmlns:xlink="http://www.w3.org/1999/xlink">
<g id="graph0" class="graph" transform="scale(1 1) rotate(0) translate(4 301)">
<title>models_diagram</title>
<polygon fill="transparent" stroke="transparent" points="-4,4 -4,-301 714.19,-301 714.19,4 -4,4"/>
<!-- _diagram_info -->
<g id="node1" class="node">
<title>_diagram_info</title>
<text text-anchor="start" x="8" y="-282.6" font-family="Times,serif" font-size="13.00">Models diagram</text>
<text text-anchor="start" x="8" y="-268.6" font-family="Times,serif" font-size="13.00">Date: Dec 14 2023 &#45; 16:37</text>
<text text-anchor="start" x="8" y="-254.6" font-family="Times,serif" font-size="13.00">Generated by RailRoady 1.6.0</text>
<text text-anchor="start" x="8" y="-240.6" font-family="Times,serif" font-size="13.00">http://railroady.prestonlee.com</text>
</g>
<!-- Car -->
<g id="node2" class="node">
<title>Car</title>
<ellipse fill="none" stroke="black" cx="84.5" cy="-178" rx="27.1" ry="18"/>
<text text-anchor="middle" x="84.5" y="-174.3" font-family="Times,serif" font-size="14.00">Car</text>
</g>
<!-- Season -->
<g id="node9" class="node">
<title>Season</title>
<ellipse fill="none" stroke="black" cx="108.5" cy="-105" rx="44.39" ry="18"/>
<text text-anchor="middle" x="108.5" y="-101.3" font-family="Times,serif" font-size="14.00">Season</text>
</g>
<!-- Car&#45;&gt;Season -->
<g id="edge1" class="edge">
<title>Car&#45;&gt;Season</title>
<path fill="none" stroke="#4c6d72" d="M93.4,-150.69C95.33,-144.95 97.39,-138.87 99.34,-133.1"/>
<polygon fill="#4c6d72" stroke="#4c6d72" points="93.39,-150.7 85.92,-158.73 91.79,-155.44 90.19,-160.17 90.19,-160.17 90.19,-160.17 91.79,-155.44 94.45,-161.62 93.39,-150.7 93.39,-150.7"/>
<polygon fill="#4c6d72" stroke="#4c6d72" points="99.48,-132.67 106.95,-124.64 101.09,-127.94 102.69,-123.2 102.69,-123.2 102.69,-123.2 101.09,-127.94 98.42,-121.76 99.48,-132.67 99.48,-132.67"/>
</g>
<!-- Profile -->
<g id="node3" class="node">
<title>Profile</title>
<ellipse fill="none" stroke="black" cx="435.5" cy="-105" rx="40.89" ry="18"/>
<text text-anchor="middle" x="435.5" y="-101.3" font-family="Times,serif" font-size="14.00">Profile</text>
</g>
<!-- User -->
<g id="node15" class="node">
<title>User</title>
<ellipse fill="none" stroke="black" cx="345.5" cy="-18" rx="33.29" ry="18"/>
<text text-anchor="middle" x="345.5" y="-14.3" font-family="Times,serif" font-size="14.00">User</text>
</g>
<!-- Profile&#45;&gt;User -->
<g id="edge2" class="edge">
<title>Profile&#45;&gt;User</title>
<path fill="none" stroke="#4a7272" d="M417.88,-79.14C411.33,-70.71 403.53,-61.53 395.5,-54 389.41,-48.29 382.34,-42.78 375.46,-37.89"/>
<polygon fill="#4a7272" stroke="#4a7272" points="417.96,-79.25 420.38,-89.94 420.96,-83.24 423.97,-87.24 423.97,-87.24 423.97,-87.24 420.96,-83.24 427.57,-84.53 417.96,-79.25 417.96,-79.25"/>
<polygon fill="#4a7272" stroke="#4a7272" points="375.2,-37.71 369.49,-28.35 371.07,-34.88 366.95,-32.06 366.95,-32.06 366.95,-32.06 371.07,-34.88 364.4,-35.77 375.2,-37.71 375.2,-37.71"/>
</g>
<!-- Race -->
<g id="node4" class="node">
<title>Race</title>
<ellipse fill="none" stroke="black" cx="587.5" cy="-178" rx="33.29" ry="18"/>
<text text-anchor="middle" x="587.5" y="-174.3" font-family="Times,serif" font-size="14.00">Race</text>
</g>
<!-- RacerEntry -->
<g id="node5" class="node">
<title>RacerEntry</title>
<ellipse fill="none" stroke="black" cx="646.5" cy="-105" rx="63.89" ry="18"/>
<text text-anchor="middle" x="646.5" y="-101.3" font-family="Times,serif" font-size="14.00">RacerEntry</text>
</g>
<!-- Race&#45;&gt;RacerEntry -->
<g id="edge4" class="edge">
<title>Race&#45;&gt;RacerEntry</title>
<path fill="none" stroke="#dbea9f" d="M606.99,-153.54C613.15,-146.13 619.96,-137.93 626.18,-130.46"/>
<polygon fill="#dbea9f" stroke="#dbea9f" points="606.99,-153.55 597.13,-158.37 603.79,-157.4 600.59,-161.24 600.59,-161.24 600.59,-161.24 603.79,-157.4 604.06,-164.12 606.99,-153.55 606.99,-153.55"/>
<polygon fill="#dbea9f" stroke="#dbea9f" points="626.23,-130.39 636.08,-125.58 629.42,-126.55 632.62,-122.7 632.62,-122.7 632.62,-122.7 629.42,-126.55 629.16,-119.83 626.23,-130.39 626.23,-130.39"/>
</g>
<!-- Session -->
<g id="node10" class="node">
<title>Session</title>
<ellipse fill="none" stroke="black" cx="330.5" cy="-105" rx="46.29" ry="18"/>
<text text-anchor="middle" x="330.5" y="-101.3" font-family="Times,serif" font-size="14.00">Session</text>
</g>
<!-- Race&#45;&gt;Session -->
<g id="edge3" class="edge">
<title>Race&#45;&gt;Session</title>
<path fill="none" stroke="#a7f61c" d="M548.14,-166.96C507.34,-156.44 441.77,-139.21 385.5,-123 382.13,-122.03 378.66,-121.01 375.16,-119.96"/>
<polygon fill="#a7f61c" stroke="#a7f61c" points="548.28,-166.99 556.84,-173.84 553.12,-168.24 557.96,-169.48 557.96,-169.48 557.96,-169.48 553.12,-168.24 559.08,-165.13 548.28,-166.99 548.28,-166.99"/>
<polygon fill="#a7f61c" stroke="#a7f61c" points="374.93,-119.89 366.66,-112.69 370.14,-118.44 365.35,-116.99 365.35,-116.99 365.35,-116.99 370.14,-118.44 364.05,-121.3 374.93,-119.89 374.93,-119.89"/>
</g>
<!-- RacerResultEntry -->
<g id="node6" class="node">
<title>RacerResultEntry</title>
<ellipse fill="none" stroke="black" cx="330.5" cy="-265" rx="93.68" ry="18"/>
<text text-anchor="middle" x="330.5" y="-261.3" font-family="Times,serif" font-size="14.00">RacerResultEntry</text>
</g>
<!-- Ranking -->
<g id="node7" class="node">
<title>Ranking</title>
<ellipse fill="none" stroke="black" cx="330.5" cy="-178" rx="48.99" ry="18"/>
<text text-anchor="middle" x="330.5" y="-174.3" font-family="Times,serif" font-size="14.00">Ranking</text>
</g>
<!-- RacerResultEntry&#45;&gt;Ranking -->
<g id="edge6" class="edge">
<title>RacerResultEntry&#45;&gt;Ranking</title>
<path fill="none" stroke="#931c72" d="M330.5,-236.73C330.5,-227.06 330.5,-216.17 330.5,-206.48"/>
<polygon fill="#931c72" stroke="#931c72" points="330.5,-236.8 326,-246.8 330.5,-241.8 330.5,-246.8 330.5,-246.8 330.5,-246.8 330.5,-241.8 335,-246.8 330.5,-236.8 330.5,-236.8"/>
<polygon fill="#931c72" stroke="#931c72" points="330.5,-206.18 335,-196.18 330.5,-201.18 330.5,-196.18 330.5,-196.18 330.5,-196.18 330.5,-201.18 326,-196.18 330.5,-206.18 330.5,-206.18"/>
</g>
<!-- RacerResultEntry&#45;&gt;Season -->
<g id="edge5" class="edge">
<title>RacerResultEntry&#45;&gt;Season</title>
<path fill="none" stroke="#3724d0" d="M274.79,-246.25C259.53,-241.66 242.94,-236.91 227.5,-233 148.75,-213.05 99.8,-258.99 48.5,-196 30.36,-173.73 55.32,-145.94 78.35,-127.18"/>
<polygon fill="#3724d0" stroke="#3724d0" points="275.03,-246.32 283.29,-253.54 279.81,-247.78 284.6,-249.24 284.6,-249.24 284.6,-249.24 279.81,-247.78 285.91,-244.93 275.03,-246.32 275.03,-246.32"/>
<polygon fill="#3724d0" stroke="#3724d0" points="78.46,-127.09 89.11,-124.49 82.4,-124.02 86.34,-120.94 86.34,-120.94 86.34,-120.94 82.4,-124.02 83.57,-117.39 78.46,-127.09 78.46,-127.09"/>
</g>
<!-- RacerResultEntry&#45;&gt;Session -->
<g id="edge7" class="edge">
<title>RacerResultEntry&#45;&gt;Session</title>
<path fill="none" stroke="#bc50ba" d="M358,-240.37C369.8,-228.42 382.28,-212.88 388.5,-196 394.03,-180.99 394.89,-174.67 388.5,-160 382.86,-147.03 372.39,-135.77 361.89,-126.94"/>
<polygon fill="#bc50ba" stroke="#bc50ba" points="358,-240.37 347.68,-244.09 354.4,-243.85 350.81,-247.32 350.81,-247.32 350.81,-247.32 354.4,-243.85 353.93,-250.56 358,-240.37 358,-240.37"/>
<polygon fill="#bc50ba" stroke="#bc50ba" points="361.79,-126.86 356.71,-117.13 357.86,-123.76 353.93,-120.67 353.93,-120.67 353.93,-120.67 357.86,-123.76 351.15,-124.2 361.79,-126.86 361.79,-126.86"/>
</g>
<!-- Ranking&#45;&gt;Season -->
<g id="edge8" class="edge">
<title>Ranking&#45;&gt;Season</title>
<path fill="none" stroke="#34a856" d="M285.04,-162.46C246.13,-150.02 190.48,-132.22 152.11,-119.95"/>
<polygon fill="#34a856" stroke="#34a856" points="285.31,-162.55 293.46,-169.88 290.07,-164.07 294.83,-165.59 294.83,-165.59 294.83,-165.59 290.07,-164.07 296.2,-161.31 285.31,-162.55 285.31,-162.55"/>
<polygon fill="#34a856" stroke="#34a856" points="151.79,-119.84 143.63,-112.51 147.02,-118.32 142.26,-116.8 142.26,-116.8 142.26,-116.8 147.02,-118.32 140.89,-121.08 151.79,-119.84 151.79,-119.84"/>
</g>
<!-- Ranking&#45;&gt;Session -->
<g id="edge9" class="edge">
<title>Ranking&#45;&gt;Session</title>
<path fill="none" stroke="#36f3df" d="M330.5,-149.75C330.5,-144.28 330.5,-138.52 330.5,-133.05"/>
<polygon fill="#36f3df" stroke="#36f3df" points="330.5,-149.81 326,-159.81 330.5,-154.81 330.5,-159.81 330.5,-159.81 330.5,-159.81 330.5,-154.81 335,-159.81 330.5,-149.81 330.5,-149.81"/>
<polygon fill="#36f3df" stroke="#36f3df" points="330.5,-133.03 335,-123.03 330.5,-128.03 330.5,-123.03 330.5,-123.03 330.5,-123.03 330.5,-128.03 326,-123.03 330.5,-133.03 330.5,-133.03"/>
</g>
<!-- Repository -->
<g id="node8" class="node">
<title>Repository</title>
<ellipse fill="none" stroke="black" cx="503.5" cy="-265" rx="61.19" ry="18"/>
<text text-anchor="middle" x="503.5" y="-261.3" font-family="Times,serif" font-size="14.00">Repository</text>
</g>
<!-- Track -->
<g id="node14" class="node">
<title>Track</title>
<ellipse fill="none" stroke="black" cx="108.5" cy="-18" rx="36.29" ry="18"/>
<text text-anchor="middle" x="108.5" y="-14.3" font-family="Times,serif" font-size="14.00">Track</text>
</g>
<!-- Season&#45;&gt;Track -->
<g id="edge10" class="edge">
<title>Season&#45;&gt;Track</title>
<path fill="none" stroke="#bc60e1" d="M108.5,-76.73C108.5,-67.06 108.5,-56.17 108.5,-46.48"/>
<polygon fill="#bc60e1" stroke="#bc60e1" points="108.5,-76.8 104,-86.8 108.5,-81.8 108.5,-86.8 108.5,-86.8 108.5,-86.8 108.5,-81.8 113,-86.8 108.5,-76.8 108.5,-76.8"/>
<polygon fill="#bc60e1" stroke="#bc60e1" points="108.5,-46.18 113,-36.18 108.5,-41.18 108.5,-36.18 108.5,-36.18 108.5,-36.18 108.5,-41.18 104,-36.18 108.5,-46.18 108.5,-46.18"/>
</g>
<!-- Stats -->
<g id="node11" class="node">
<title>Stats</title>
<ellipse fill="none" stroke="black" cx="529.5" cy="-105" rx="35.19" ry="18"/>
<text text-anchor="middle" x="529.5" y="-101.3" font-family="Times,serif" font-size="14.00">Stats</text>
</g>
<!-- Stats&#45;&gt;User -->
<g id="edge11" class="edge">
<title>Stats&#45;&gt;User</title>
<path fill="none" stroke="#b3a3ab" d="M495.06,-88.09C461.95,-72.8 412.22,-49.82 379.32,-34.62"/>
<polygon fill="#b3a3ab" stroke="#b3a3ab" points="495.22,-88.17 502.41,-96.44 499.76,-90.26 504.3,-92.36 504.3,-92.36 504.3,-92.36 499.76,-90.26 506.19,-88.27 495.22,-88.17 495.22,-88.17"/>
<polygon fill="#b3a3ab" stroke="#b3a3ab" points="379.18,-34.56 371.99,-26.28 374.64,-32.46 370.1,-30.36 370.1,-30.36 370.1,-30.36 374.64,-32.46 368.21,-34.45 379.18,-34.56 379.18,-34.56"/>
</g>
<!-- Team -->
<g id="node12" class="node">
<title>Team</title>
<ellipse fill="none" stroke="black" cx="230.5" cy="-105" rx="36" ry="18"/>
<text text-anchor="middle" x="230.5" y="-101.3" font-family="Times,serif" font-size="14.00">Team</text>
</g>
<!-- Team&#45;&gt;User -->
<g id="edge12" class="edge">
<title>Team&#45;&gt;User</title>
<path fill="none" stroke="#e50088" d="M267.67,-89.95C270.32,-88.95 272.95,-87.96 275.5,-87 296.82,-78.97 306.95,-84.66 323.5,-69 330.14,-62.72 334.89,-54.09 338.25,-45.77"/>
<polygon fill="#e50088" stroke="#e50088" points="267.46,-90.03 256.51,-89.35 262.78,-91.8 258.1,-93.56 258.1,-93.56 258.1,-93.56 262.78,-91.8 259.69,-97.77 267.46,-90.03 267.46,-90.03"/>
<polygon fill="#e50088" stroke="#e50088" points="338.26,-45.73 345.81,-37.78 339.91,-41.01 341.56,-36.29 341.56,-36.29 341.56,-36.29 339.91,-41.01 337.32,-34.81 338.26,-45.73 338.26,-45.73"/>
<text text-anchor="middle" x="356.5" y="-57.8" font-family="Times,serif" font-size="14.00">leader</text>
</g>
<!-- Team&#45;&gt;User -->
<g id="edge13" class="edge">
<title>Team&#45;&gt;User</title>
<path fill="none" stroke="#af8810" d="M225.29,-76.89C225.17,-68.84 226.63,-60.46 231.5,-54 247.89,-32.29 277.48,-23.64 302.41,-20.37"/>
<polygon fill="#af8810" stroke="#af8810" points="225.31,-77.12 221.71,-87.48 225.75,-82.1 226.19,-87.08 226.19,-87.08 226.19,-87.08 225.75,-82.1 230.67,-86.69 225.31,-77.12 225.31,-77.12"/>
<polygon fill="#af8810" stroke="#af8810" points="302.46,-20.37 312.88,-23.78 307.43,-19.84 312.41,-19.3 312.41,-19.3 312.41,-19.3 307.43,-19.84 311.93,-14.83 302.46,-20.37 302.46,-20.37"/>
<text text-anchor="middle" x="265" y="-57.8" font-family="Times,serif" font-size="14.00">members</text>
</g>
<!-- Tournament -->
<g id="node13" class="node">
<title>Tournament</title>
<ellipse fill="none" stroke="black" cx="196.5" cy="-178" rx="66.89" ry="18"/>
<text text-anchor="middle" x="196.5" y="-174.3" font-family="Times,serif" font-size="14.00">Tournament</text>
</g>
<!-- Tournament&#45;&gt;Season -->
<g id="edge14" class="edge">
<title>Tournament&#45;&gt;Season</title>
<path fill="none" stroke="#bf675c" d="M168.16,-154.14C157.7,-145.69 145.87,-136.15 135.52,-127.8"/>
<polygon fill="#bf675c" stroke="#bf675c" points="168.31,-154.25 173.26,-164.03 172.2,-157.39 176.09,-160.53 176.09,-160.53 176.09,-160.53 172.2,-157.39 178.92,-157.03 168.31,-154.25 168.31,-154.25"/>
<polygon fill="#bf675c" stroke="#bf675c" points="135.38,-127.69 130.42,-117.9 131.49,-124.55 127.59,-121.41 127.59,-121.41 127.59,-121.41 131.49,-124.55 124.77,-124.91 135.38,-127.69 135.38,-127.69"/>
</g>
<!-- Tournament&#45;&gt;Team -->
<g id="edge15" class="edge">
<title>Tournament&#45;&gt;Team</title>
<path fill="none" stroke="#94d91c" d="M209.13,-150.63C212.03,-144.57 215.11,-138.14 218,-132.09"/>
<polygon fill="#94d91c" stroke="#94d91c" points="209.05,-150.79 200.67,-157.87 206.89,-155.3 204.73,-159.81 204.73,-159.81 204.73,-159.81 206.89,-155.3 208.79,-161.76 209.05,-150.79 209.05,-150.79"/>
<polygon fill="#94d91c" stroke="#94d91c" points="218.03,-132.05 226.4,-124.97 220.19,-127.54 222.35,-123.03 222.35,-123.03 222.35,-123.03 220.19,-127.54 218.29,-121.09 218.03,-132.05 218.03,-132.05"/>
</g>
<!-- User&#45;&gt;Team -->
<g id="edge16" class="edge">
<title>User&#45;&gt;Team</title>
<path fill="none" stroke="#4e8ded" d="M326.55,-42.37C318.51,-51.38 308.65,-61.35 298.5,-69 288.74,-76.36 277.21,-82.95 266.44,-88.37"/>
<polygon fill="#4e8ded" stroke="#4e8ded" points="326.58,-42.34 336.52,-37.71 329.85,-38.55 333.12,-34.77 333.12,-34.77 333.12,-34.77 329.85,-38.55 329.71,-31.83 326.58,-42.34 326.58,-42.34"/>
<polygon fill="#4e8ded" stroke="#4e8ded" points="266.24,-88.47 255.28,-88.78 261.74,-90.65 257.24,-92.83 257.24,-92.83 257.24,-92.83 261.74,-90.65 259.2,-96.88 266.24,-88.47 266.24,-88.47"/>
</g>
</g>
</svg>
